<?xml version="1.0" encoding="UTF-8" standalone="no"?>
<!-- Created with Inkscape (http://www.inkscape.org/) -->

<svg
   width="512"
   height="512"
   viewBox="0 0 512 512"
   version="1.1"
   id="svg1"
   xmlns="http://www.w3.org/2000/svg"
   xmlns:svg="http://www.w3.org/2000/svg">
  <defs
     id="defs1" />
  <g
     id="layer1">
    <rect
       style="fill:#000000;stroke:#000000;stroke-width:12;stroke-linecap:round;stroke-linejoin:round;stroke-dasharray:none;stroke-opacity:1"
       id="rect1"
       width="42.500446"
       height="85.000893"
       x="31.22797"
       y="60.28038" />
    <path
       id="path1"
       style="fill:#000000;stroke:#000000;stroke-width:15.3975;stroke-linecap:round;stroke-linejoin:round;stroke-dasharray:none;stroke-opacity:1"
       d="M 103.68601,28.405455 46.656779,70.240984 c 0.159548,1.745818 0.315001,3.491405 0.47114,5.235589 1.406699,15.753587 1.765773,31.600977 1.55665,47.430157 -0.07002,4.53112 -0.188954,9.05748 -0.448313,13.57219 l 55.449754,40.67727 z" />
    <path
       style="fill:none;stroke:#000000;stroke-width:16;stroke-linecap:round;stroke-dasharray:none;stroke-opacity:1"
       id="path2"
       d="m 134.18559,58.895331 a 50.674603,50.674603 0 0 1 25.3373,43.885489 50.674603,50.674603 0 0 1 -25.3373,43.8855" />
    <path
       style="fill:none;stroke:#000000;stroke-width:16;stroke-linecap:round;stroke-dasharray:none;stroke-opacity:1"
       id="path2-05"
       d="m 424.78317,-249.9208 a 50.674603,50.674603 0 0 1 25.33729,43.88549 50.674603,50.674603 0 0 1 -25.3373,43.8855"
       transform="rotate(45)" />
    <path
       style="fill:none;stroke:#000000;stroke-width:16;stroke-linecap:round;stroke-dasharray:none;stroke-opacity:1"
       id="path2-05-8"
       d="m -65.839363,-611.30468 a 50.674603,50.674603 0 0 1 25.337299,43.88549 50.674603,50.674603 0 0 1 -25.337303,43.88549"
       transform="rotate(135)" />
    <g
       id="g8"
       transform="translate(0,-2.6794358)">
      <path
         style="fill:none;stroke:#000000;stroke-width:16;stroke-linecap:round;stroke-dasharray:none;stroke-opacity:1"
         id="path2-9"
         d="m 225.12912,-493.62801 a 40.440578,40.440578 0 0 1 20.22029,35.02257 40.440578,40.440578 0 0 1 -20.22029,35.02257"
         transform="rotate(90)" />
      <path
         style="fill:none;stroke:#000000;stroke-width:16;stroke-linecap:round;stroke-dasharray:none;stroke-opacity:1"
         id="path2-9-0"
         d="m 272.00946,-493.40291 a 40.440578,40.440578 0 0 1 20.22029,35.02257 40.440578,40.440578 0 0 1 -20.22029,35.02257"
         transform="rotate(90)" />
    </g>
    <path
       style="fill:none;stroke:#000000;stroke-width:16;stroke-linecap:round;stroke-dasharray:none;stroke-opacity:1"
       id="path2-0"
       d="m 184.03294,19.170107 a 96.545341,96.545341 0 0 1 48.27267,83.610713 96.545341,96.545341 0 0 1 -48.27267,83.61072" />
    <path
       style="fill:none;stroke:#000000;stroke-width:16;stroke-linecap:round;stroke-dasharray:none;stroke-opacity:1"
       id="path2-0-7"
       d="m 259.44995,19.170107 a 96.545341,96.545341 0 0 1 48.27267,83.610713 96.545341,96.545341 0 0 1 -48.27268,83.61072" />
    <path
       style="fill:none;stroke:#000000;stroke-width:16;stroke-linecap:round;stroke-dasharray:none;stroke-opacity:1"
       id="path2-0-7-9"
       d="m 334.86697,19.170107 a 96.545341,96.545341 0 0 1 48.27267,83.610713 96.545341,96.545341 0 0 1 -48.27267,83.61072" />
    <path
       style="fill:none;stroke:#000000;stroke-width:16;stroke-linecap:round;stroke-dasharray:none;stroke-opacity:1"
       id="path2-0-3"
       d="m -366.19904,-492.08282 a 96.545341,96.545341 0 0 1 48.27267,83.61071 96.545341,96.545341 0 0 1 -48.27267,83.61072"
       transform="scale(-1)" />
    <path
       style="fill:none;stroke:#000000;stroke-width:16;stroke-linecap:round;stroke-dasharray:none;stroke-opacity:1"
       id="path2-0-7-6"
       d="m -290.78201,-492.08282 a 96.545341,96.545341 0 0 1 48.27266,83.61071 96.545341,96.545341 0 0 1 -48.27267,83.61072"
       transform="scale(-1)" />
    <path
       style="fill:none;stroke:#000000;stroke-width:16;stroke-linecap:round;stroke-dasharray:none;stroke-opacity:1"
       id="path2-0-7-9-9"
       d="m -215.36499,-492.08282 a 96.545341,96.545341 0 0 1 48.27267,83.61071 96.545341,96.545341 0 0 1 -48.27268,83.61072"
       transform="scale(-1)" />
    <rect
       style="fill:#000000;fill-opacity:1;stroke:#000000;stroke-width:16;stroke-linecap:round;stroke-linejoin:round;stroke-dasharray:none;stroke-opacity:1"
       id="rect2"
       width="379.46826"
       height="82.724083"
       x="20.491287"
       y="214.63795" />
    <g
       id="g11"
       transform="translate(0,-0.55177535)">
      <path
         style="fill:none;fill-opacity:1;stroke:#000000;stroke-width:16;stroke-linecap:round;stroke-linejoin:round;stroke-dasharray:none;stroke-opacity:1"
         d="M 31.704287,392.59351 C 7.1337647,288.52282 159.74486,308.06577 116.69876,418.22677 99.861939,461.31456 23.157574,543.42062 29.680609,438.46354"
         id="path10" />
      <path
         style="fill:none;fill-opacity:1;stroke:#000000;stroke-width:16;stroke-linecap:round;stroke-linejoin:round;stroke-dasharray:none;stroke-opacity:1"
         d="m 99.160217,387.19704 c 31.913553,-62.63121 -54.595597,-41.7896 -26.762878,10.49675 8.06715,15.15489 4.656168,27.65514 -14.385239,29.30225"
         id="path11"
         transform="translate(-2.0236779,5.3964744)" />
    </g>
  </g>
</svg>
